<svg width="93" height="36" viewBox="0 0 93 36" fill="none" xmlns="http://www.w3.org/2000/svg">
<path d="M8.7 15.9H16.4V27C16.4 29.8333 15.7 32.0167 14.3 33.55C12.9333 35.05 10.9 35.8 8.2 35.8C5.5 35.8 3.45 35.05 2.05 33.55C0.683333 32.0167 0 29.8333 0 27V8.8C0 5.96667 0.683333 3.8 2.05 2.3C3.45 0.766666 5.5 0 8.2 0C10.9 0 12.9333 0.766666 14.3 2.3C15.7 3.8 16.4 5.96667 16.4 8.8V12.2H11.2V8.45C11.2 7.18333 10.9333 6.3 10.4 5.8C9.9 5.26667 9.21667 5 8.35 5C7.48333 5 6.78333 5.26667 6.25 5.8C5.75 6.3 5.5 7.18333 5.5 8.45V27.35C5.5 28.6167 5.75 29.5 6.25 30C6.78333 30.5 7.48333 30.75 8.35 30.75C9.21667 30.75 9.9 30.5 10.4 30C10.9333 29.5 11.2 28.6167 11.2 27.35V20.9H8.7V15.9Z" fill="white"/>
<path d="M24.35 23.8L17.4 0.399998H23.15L27.35 16.35L31.55 0.399998H36.8L29.85 23.8V35.4H24.35V23.8Z" fill="white"/>
<path d="M47.1242 0.399998C49.8909 0.399998 51.9409 1.13333 53.2742 2.6C54.6409 4.06667 55.3242 6.21666 55.3242 9.05V13.6C55.3242 16.4333 54.6409 18.5833 53.2742 20.05C51.9409 21.5167 49.8909 22.25 47.1242 22.25H44.5242V35.4H39.0242V0.399998H47.1242ZM44.5242 5.4V17.25H47.1242C47.9909 17.25 48.6576 17.0167 49.1242 16.55C49.5909 16.0833 49.8242 15.2167 49.8242 13.95V8.7C49.8242 7.43333 49.5909 6.56667 49.1242 6.1C48.6576 5.63333 47.9909 5.4 47.1242 5.4H44.5242Z" fill="white"/>
<path d="M56.516 0.399998H73.516V5.4H67.766V35.4H62.266V5.4H56.516V0.399998Z" fill="white"/>
<path d="M80.9883 27.35C80.9883 28.6167 81.2383 29.5167 81.7383 30.05C82.2716 30.55 82.9716 30.8 83.8383 30.8C84.7049 30.8 85.3883 30.55 85.8883 30.05C86.4216 29.5167 86.6883 28.6167 86.6883 27.35V8.45C86.6883 7.18333 86.4216 6.3 85.8883 5.8C85.3883 5.26667 84.7049 5 83.8383 5C82.9716 5 82.2716 5.26667 81.7383 5.8C81.2383 6.3 80.9883 7.18333 80.9883 8.45V27.35ZM75.4883 8.8C75.4883 5.96667 76.2049 3.8 77.6383 2.3C79.0716 0.766666 81.1383 0 83.8383 0C86.5383 0 88.605 0.766666 90.0383 2.3C91.4716 3.8 92.1883 5.96667 92.1883 8.8V27C92.1883 29.8333 91.4716 32.0167 90.0383 33.55C88.605 35.05 86.5383 35.8 83.8383 35.8C81.1383 35.8 79.0716 35.05 77.6383 33.55C76.2049 32.0167 75.4883 29.8333 75.4883 27V8.8Z" fill="white"/>
</svg>
